<svg width="66" height="68" viewBox="0 0 66 68" fill="none" xmlns="http://www.w3.org/2000/svg">
<path d="M30.5126 65.7818C30.7775 60.853 30.7491 55.6498 28.1002 52.14C25.4513 48.6302 25.0067 42.5094 26.7001 36.2183C28.3935 29.9272 29.6612 17.8937 28.5354 15.2448C29.6895 13.9866 31.8654 15.1123 32.6885 16.9287C33.5115 18.7451 33.2372 23.5509 33.0574 25.8309C32.8777 28.1108 33.4358 32.7842 35.0819 34.4776C36.728 36.171 40.9852 31.3557 41.7042 29.4731C42.4231 27.5905 43.9273 22.6049 42.5745 21.3561C41.2217 20.1074 31.2316 15.4151 29.9923 12.3026C29.4057 9.46453 32.679 12.3026 35.1955 12.4634C37.7119 12.6243 42.1961 14.592 44.3152 15.1502C46.4343 15.7083 48.9318 19.0478 49.4238 21.7724C49.9157 24.497 49.2629 31.4408 48.8562 32.8504" stroke="white" stroke-width="3" stroke-miterlimit="10" stroke-linecap="round"/>
<path d="M49.5843 25.2256C50.4559 24.3409 51.0872 23.2483 51.4183 22.0513C51.7494 20.8543 51.7694 19.5926 51.4764 18.3858C51.0601 17.2884 48.7707 13.5799 47.7868 9.99447C47.4438 8.81353 47.391 7.56719 47.6332 6.3615C47.8753 5.15581 48.4051 4.02645 49.1775 3.06952C49.764 2.67219 51.9399 8.62273 53.5482 10.5999C55.1564 12.5771 57.1242 18.5277 58.2121 20.0602C59.3 21.5928 53.6901 36.5874 50.9655 40.3242C48.2409 44.0611 41.1741 51.6956 46.2448 64.4386" stroke="white" stroke-width="3" stroke-miterlimit="10" stroke-linecap="round"/>
<path d="M55.498 14.2988C55.394 11.2621 57.3901 7.53471 59.916 6.33325C61.1269 8.33884 59.2822 13.2393 59.8592 15.9071C60.4132 18.3777 60.3333 20.9482 59.627 23.3797C58.9207 25.8111 57.611 28.0244 55.8197 29.8138" stroke="white" stroke-width="3" stroke-miterlimit="10" stroke-linecap="round"/>
<path d="M60.1697 19.237C61.5225 16.3989 63.2538 15.1407 64.0768 14.9988C65.2972 15.5948 63.32 21.2237 64.0201 23.759C64.7201 26.2944 56.5275 31.6962 53.7178 34.9506" stroke="white" stroke-width="3" stroke-miterlimit="10" stroke-linecap="round"/>
<path d="M31.0896 14.7907C20.7778 8.88745 10.7877 5.11278 1.5166 6.2291" stroke="white" stroke-width="3" stroke-linecap="round" stroke-linejoin="round"/>
<path d="M24.8268 11.4607C17.6559 12.1986 7.99692 14.0717 1.5166 6.2291C12.7176 -1.5189 18.5452 2.0571 24.8268 11.4607Z" stroke="white" stroke-width="3" stroke-linecap="round" stroke-linejoin="round"/>
<path d="M17.3153 8.33862C14.8745 8.55621 12.6608 9.9185 10.5322 11.6876" stroke="white" stroke-width="3" stroke-linecap="round" stroke-linejoin="round"/>
<path d="M12.6333 6.98596C11.0628 5.41554 9.833 3.89243 9.53027 2.32202" stroke="white" stroke-width="3" stroke-linecap="round" stroke-linejoin="round"/>
<path d="M7.91266 6.19141C6.35064 6.54413 4.93227 7.36217 3.84473 8.53757" stroke="white" stroke-width="3" stroke-linecap="round" stroke-linejoin="round"/>
<path d="M20.9099 9.70102C19.2958 7.89284 18.0863 5.7609 17.3623 3.44775" stroke="white" stroke-width="3" stroke-linecap="round" stroke-linejoin="round"/>
</svg>
