<svg width="18" height="19" viewBox="0 0 18 19" fill="none" xmlns="http://www.w3.org/2000/svg">
<path d="M4.83037 0.244507H13.0142C15.6776 0.244507 17.8445 2.41135 17.8445 5.07484V13.2588C17.8445 15.9221 15.6776 18.089 13.0142 18.089H4.83023C2.16688 18.089 3.62396e-05 15.9221 3.62396e-05 13.2588V5.07484C3.62396e-05 2.41135 2.16688 0.244507 4.83037 0.244507V0.244507ZM1.04615 13.2588C1.04615 15.3453 2.74371 17.0428 4.83037 17.0428H13.0142C15.1008 17.0428 16.7984 15.3453 16.7984 13.2588V5.07484C16.7984 2.98818 15.1008 1.29062 13.0142 1.29062H4.83023C2.74371 1.29062 1.04615 2.98818 1.04615 5.07484V13.2588Z" fill="#365C00"/>
<path d="M9.19242 4.02979C11.8759 4.02979 14.0591 6.21292 14.0591 8.89645C14.0591 11.58 11.8759 13.7631 9.19242 13.7631C6.50888 13.7631 4.32575 11.58 4.32575 8.89645C4.32575 6.21292 6.50888 4.02979 9.19242 4.02979ZM9.19242 12.7197C11.3005 12.7197 13.0157 11.0046 13.0157 8.89645C13.0157 6.78841 11.3005 5.07321 9.19242 5.07321C7.08424 5.07321 5.36918 6.78841 5.36918 8.89645C5.36918 11.0046 7.08424 12.7197 9.19242 12.7197Z" fill="#365C00"/>
<path d="M4.05544 2.40747C4.8009 2.40747 5.40723 3.01392 5.40723 3.75926C5.40723 4.50472 4.8009 5.11117 4.05544 5.11117C3.30998 5.11117 2.70352 4.50472 2.70352 3.75926C2.70352 3.0138 3.30998 2.40747 4.05544 2.40747ZM4.05544 4.1302C4.25993 4.1302 4.42638 3.96375 4.42638 3.75926C4.42638 3.55464 4.25993 3.38831 4.05544 3.38831C3.85082 3.38831 3.68437 3.55464 3.68437 3.75926C3.68437 3.96375 3.85082 4.1302 4.05544 4.1302Z" fill="#365C00"/>
</svg>
