<svg width="16" height="19" viewBox="0 0 16 19" fill="none" xmlns="http://www.w3.org/2000/svg">
<path d="M7 17.5C7 18.0523 7.44772 18.5 8 18.5C8.55229 18.5 9 18.0523 9 17.5L7 17.5ZM8.70711 0.292892C8.31658 -0.0976315 7.68342 -0.0976315 7.29289 0.292892L0.928932 6.65685C0.538408 7.04738 0.538408 7.68054 0.928932 8.07107C1.31946 8.46159 1.95262 8.46159 2.34315 8.07107L8 2.41421L13.6569 8.07107C14.0474 8.46159 14.6805 8.46159 15.0711 8.07107C15.4616 7.68054 15.4616 7.04738 15.0711 6.65685L8.70711 0.292892ZM9 17.5L9 1L7 1L7 17.5L9 17.5Z" fill="white"/>
</svg>
