<svg width="43" height="25" viewBox="0 0 43 25" fill="none" xmlns="http://www.w3.org/2000/svg">
<path d="M16.5 11C15.9477 11 15.5 11.4477 15.5 12C15.5 12.5523 15.9477 13 16.5 13H35.5C36.0523 13 36.5 12.5523 36.5 12C36.5 11.4477 36.0523 11 35.5 11H16.5ZM18 16C17.4477 16 17 16.4477 17 17C17 17.5523 17.4477 18 18 18H26.5C27.0523 18 27.5 17.5523 27.5 17C27.5 16.4477 27.0523 16 26.5 16H18ZM16.5 6C15.9477 6 15.5 6.44772 15.5 7C15.5 7.55228 15.9477 8 16.5 8H35.5C36.0523 8 36.5 7.55228 36.5 7C36.5 6.44772 36.0523 6 35.5 6H16.5ZM11.0553 1H40C41.1046 1 42 1.89543 42 3V22C42 23.1046 41.1046 24 40 24H13.302C12.1975 24 11.302 23.1046 11.302 22V13.0773C11.302 10.8682 9.51118 9.07734 7.30204 9.07734H3.44791C1.36804 9.07734 0.66995 6.29709 2.50312 5.31457L10.1105 1.23723C10.4011 1.08149 10.7256 1 11.0553 1Z" stroke="white" stroke-width="2" stroke-linecap="round"/>
</svg>
